<svg width="1128" height="301" viewBox="0 0 1128 301" fill="none" xmlns="http://www.w3.org/2000/svg">
<path d="M1127.14 34.6657C1123.43 49.5675 1112.33 61.805 1101.15 71.7189C1097.18 75.1344 1092.7 77.9238 1087.89 79.9908C1082.07 82.5622 1078.16 80.9202 1074.66 75.6845C1070.32 68.5896 1067.41 60.7188 1066.08 52.5107C1064.9 47.0385 1064.23 41.4695 1064.07 35.874C1063.75 27.7712 1066.09 19.7875 1070.73 13.134C1073.3 9.36252 1076.75 6.26355 1080.77 4.09665C1084.79 1.92975 1089.27 0.758036 1093.84 0.679658C1101.26 0.262604 1108.66 1.83478 1115.28 5.23385C1125.9 10.7516 1129.93 23.4197 1127.14 34.6657Z" fill="white"/>
<path d="M1090.65 106.078C1088.21 98.3021 1081.05 96.9079 1074.14 96.2573C1062.8 95.2349 1053.91 100.935 1046.75 108.65C1040.86 115.246 1035.72 122.478 1031.42 130.212C1022.43 145.749 1016.97 162.907 1011.74 179.943C1008.33 191.022 1005.35 200.768 1001.11 215.144C998.598 223.648 995.76 236.765 987.888 243.389C985.918 245.205 983.348 246.231 980.669 246.27C977.385 245.805 976.208 242.335 976.053 239.113C975.867 235.551 975.867 231.988 976.022 228.425C976.928 217.504 979.208 206.741 982.807 196.391C988.074 179.351 993.743 162.436 998.855 145.334C1001.04 139.432 1001.14 132.96 999.134 126.993C998.264 124.888 996.879 123.034 995.106 121.603C988.012 116.026 975.155 116.956 967.378 122.129C964.807 123.895 962.267 125.723 959.571 127.582C958.983 126.622 958.518 125.94 958.084 125.197C956.361 121.862 953.992 118.904 951.114 116.495C948.237 114.085 944.909 112.273 941.324 111.162C933.82 109.176 926.061 108.32 918.305 108.622C909.19 108.67 900.21 110.822 892.064 114.911C879.261 121.389 868.361 131.083 860.432 143.042C851.648 155.028 843.836 167.699 837.073 180.931C830.04 194.243 824.919 208.479 821.861 223.22C820.824 228.617 820.203 234.086 820.002 239.578C819.954 244.028 820.359 248.47 821.21 252.838C822.321 261.523 826.469 269.535 832.921 275.454C838.805 280.126 845.92 282.989 853.4 283.695C862.549 285.036 871.888 283.407 880.043 279.048C888.892 274.393 896.851 268.216 903.558 260.8C906.377 257.764 909.351 254.852 912.573 251.506C912.945 253.458 913.224 254.697 913.41 255.936C914.568 265.202 918.511 273.899 924.718 280.876C935.189 291.905 948.604 293.733 962.731 291.657C970.504 290.502 977.944 287.716 984.564 283.481C988.015 281.282 998.158 269.394 1002.11 272.48C1006.97 276.266 1007.46 283.264 1012.9 286.926C1015.72 288.53 1018.86 289.486 1022.1 289.725C1025.33 289.964 1028.58 289.48 1031.6 288.308C1040.25 285.228 1048.35 280.783 1055.58 275.141C1057.16 274.11 1058.4 272.647 1059.17 270.927C1059.93 269.207 1060.18 267.303 1059.89 265.444C1058.97 250.326 1060.09 235.152 1063.24 220.336C1066.99 203.327 1071.57 186.505 1076.37 169.775C1081.21 152.736 1089.17 136.594 1091.58 118.842C1092.21 114.571 1091.89 110.215 1090.65 106.078ZM934.353 159.616C929.434 180.383 919.822 199.746 906.253 216.219C901.538 222.495 895.848 227.975 889.399 232.453C885.589 234.993 881.871 235.922 879.764 231.213C879.187 229.917 878.821 228.536 878.68 227.124C877.844 219.038 881.84 210.611 884.597 203.238C887.634 194.935 891.031 186.807 894.79 178.856C900.212 167.362 906.563 156.332 916.477 148.061C919.72 145.614 923.327 143.691 927.165 142.36C929.799 141.307 932.897 143.661 934.105 146.573C935.548 150.789 935.634 155.35 934.353 159.616Z" fill="white"/>
<path d="M353.195 202.653C347.68 219.786 336.682 230.908 318.651 234.533C308.162 236.919 297.206 236.209 287.113 232.488C282.595 230.76 278.693 227.73 275.902 223.78C273.111 219.83 271.557 215.14 271.436 210.305C270.693 197.386 275.867 186.233 281.877 175.328C284.386 170.805 286.989 166.313 289.065 161.572C289.957 159.202 290.296 156.659 290.056 154.137C289.932 153.298 289.618 152.498 289.139 151.799C288.66 151.099 288.027 150.518 287.289 150.1C286.551 149.682 285.727 149.437 284.881 149.385C284.034 149.333 283.187 149.475 282.404 149.8C277.935 151.875 273.767 154.542 270.011 157.731C254.924 171.579 242.81 187.937 231.13 204.698C218.641 222.431 207.28 240.932 197.113 260.092C193.798 266.412 191.32 273.228 187.571 279.238C184.96 283.689 181.188 287.346 176.659 289.818C172.129 292.29 167.013 293.484 161.857 293.272C155.918 293.536 150.005 292.345 144.631 289.802C140.48 287.561 137.302 283.865 135.709 279.424C129.544 282.863 123.44 286.673 116.996 289.71C106.945 294.824 96.0875 298.168 84.9002 299.592C77.2907 300.587 69.6147 300.98 61.9434 300.77C47.7222 300.256 34.0403 295.196 22.9074 286.333C11.9487 277.339 4.49322 264.786 1.84036 250.859C-0.276025 240.571 -0.569636 229.99 0.972898 219.6C3.38093 203.327 8.69058 187.618 16.6492 173.221C22.9698 161.156 30.5063 149.768 39.1414 139.235C48.0968 128.327 58.6952 118.878 70.556 111.228C79.3167 105.532 89.103 101.596 99.3683 99.6416C112.659 97.1631 124.122 101.748 134.78 109.122C142.196 114.15 148.458 120.697 153.151 128.33C157.455 136.114 158.597 145.255 156.342 153.858C154.041 163.252 150.662 172.348 146.273 180.967C142.246 189.889 138.249 198.812 134.129 207.703C133.448 209.636 132.029 211.22 130.182 212.108C128.336 212.997 126.212 213.117 124.277 212.443C118.534 210.625 113.367 207.334 109.291 202.899C105.214 198.464 102.37 193.038 101.041 187.163C100.076 178.744 101.448 170.223 105.007 162.533C108.694 153.022 112.938 143.727 117.027 134.402C117.405 133.777 117.652 133.081 117.752 132.357C117.852 131.633 117.803 130.896 117.609 130.192C117.415 129.487 117.079 128.829 116.622 128.259C116.165 127.689 115.597 127.217 114.952 126.874C110.258 127.965 106.003 130.449 102.745 133.999C96.9828 139.7 91.5301 145.71 86.3253 151.937C75.846 165.028 66.9062 179.28 59.6817 194.412C55.1587 203.113 52.3405 212.598 51.3789 222.357C50.4213 229.855 50.6618 237.458 52.0914 244.88C52.8765 249.598 55.2596 253.903 58.8413 257.073C62.4231 260.243 66.9857 262.086 71.7643 262.291C90.0922 263.314 108.284 258.603 123.812 248.815C129.733 244.758 135.422 240.373 140.852 235.679C141.846 234.74 142.591 233.569 143.02 232.271C148.504 217.617 153.647 202.839 159.471 188.34C163.747 177.59 168.828 167.149 173.599 156.616C178.09 146.269 183.59 136.39 190.018 127.122C197.268 116.929 206.407 109.215 219.141 107.573C229.395 106.241 238.844 109.679 243.739 121.266C248.046 131.459 245.567 141.249 242.252 151.039C241.385 153.548 240.548 156.058 239.464 159.28C245.443 152.774 250.524 146.578 256.256 141.125C265.484 131.766 276.205 124.008 287.98 118.168C296.415 113.943 305.749 111.827 315.181 112.003C326.861 112.53 337.767 115.473 345.945 124.736C349.505 128.92 351.852 133.999 352.73 139.421C354.651 149.49 351.305 158.536 347.587 167.583C344.83 174.275 342.011 180.967 339.935 187.875C338.262 193.483 341.236 197.448 347.185 198.966C348.504 199.308 349.852 199.526 351.212 199.617C353.412 199.71 353.722 200.949 353.195 202.653Z" fill="white"/>
<path d="M839.419 121.265C834.53 110.32 810.42 109.161 800.469 112.554C796.536 114.027 792.782 115.94 789.279 118.257C772.639 128.549 766.722 141.766 758.918 159.028C751.173 176.068 744.047 193.417 735.744 210.178C730.23 220.958 723.956 231.331 716.97 241.221C712.999 247.653 706.635 252.244 699.279 253.985C694.911 254.852 693.114 252.9 691.565 249.09C690.139 245.591 689.271 241.89 688.994 238.122C688.372 227.302 689.769 216.46 693.114 206.15C698.04 189.637 703.338 173.248 708.326 156.767C710.956 149.608 712.238 142.024 712.106 134.398C712.138 131.737 711.554 129.104 710.398 126.707C709.243 124.31 707.547 122.213 705.445 120.581C701.065 117.379 695.885 115.45 690.478 115.008C685.071 114.565 679.647 115.625 674.805 118.071C664.519 122.966 657.796 131.703 652.87 141.617C645.899 155.558 639.61 169.84 632.794 183.844C628.116 193.541 623.066 203.083 618.171 212.656C611.969 225.819 604.509 238.353 595.896 250.081C594.533 251.816 592.116 254.233 590.567 253.954C588.709 253.675 587.221 250.856 585.641 249.09C585.371 248.766 585.18 248.384 585.084 247.974C582.72 239.439 582.307 230.481 583.876 221.765C585.456 211.913 587.438 202.092 589.7 192.364C594.161 172.939 599.242 153.637 603.424 134.119C604.507 130.283 604.426 126.212 603.19 122.423C601.954 118.633 599.621 115.296 596.485 112.836C593.36 110.601 589.805 109.04 586.045 108.251C582.285 107.462 578.403 107.462 574.643 108.25C564.327 109.861 556.736 116.12 550.695 124.484C543.296 134.773 538.049 146.448 535.266 158.811C532.881 169.035 531.301 179.445 529.597 189.854C528.822 194.656 528.791 199.551 528.203 204.415C528.035 205.762 527.462 207.026 526.561 208.04C522.44 212.346 518.258 216.56 513.952 220.68C505.797 228.542 496.452 235.067 486.261 240.012C479.622 243.568 472.295 245.653 464.778 246.123C457.262 246.594 449.732 245.439 442.702 242.739C438.153 241.022 434.114 238.181 430.961 234.481C427.808 230.78 425.644 226.342 424.671 221.579C430.712 221.579 436.536 221.641 442.361 221.579C456.144 221.427 469.679 217.884 481.769 211.262C493.162 205.46 502.425 196.198 508.226 184.804C514.79 172.091 516.37 157.386 512.657 143.569C511.002 137.032 507.839 130.974 503.422 125.879C499.006 120.784 493.457 116.795 487.221 114.23C480.247 110.929 472.685 109.054 464.977 108.715C457.881 108.105 450.744 108.178 443.662 108.932C428.748 111.707 414.937 118.683 403.852 129.039C392.071 139.641 382.336 152.316 375.132 166.433C366.823 182.097 361.685 199.247 360.014 216.901C359.025 226.994 359.854 237.182 362.461 246.983C365.67 260.395 373.739 272.141 385.108 279.947C396.927 287.62 410.618 291.916 424.702 292.37C434.518 292.664 444.343 292.26 454.103 291.162C463.836 290.052 473.308 287.286 482.109 282.983C496.607 276.355 509.676 266.969 520.588 255.348C523.996 251.785 527.249 248.036 530.161 244.783C532.949 251.568 535.459 258.601 538.65 265.293C542.5 273.991 549.414 280.97 558.075 284.904C566.461 288.562 575.295 291.093 584.346 292.432C586.682 293.04 589.132 293.061 591.478 292.494C593.824 291.926 595.993 290.787 597.792 289.179C603.771 283.293 609.999 277.623 615.823 271.582C619.083 267.974 622.155 264.199 625.024 260.274C629.269 254.852 633.451 249.338 637.881 243.575C638.377 246.394 638.718 248.78 639.245 251.134C642.002 263.124 647.114 273.534 657.802 280.566C665.059 285.024 672.974 288.307 681.255 290.294C695.103 294.386 709.983 293.137 722.955 286.793C737.253 279.638 749.79 269.408 759.667 256.835C767.594 247.499 774.989 237.724 781.819 227.558C792.197 211.634 801.987 195.245 811.468 178.732C816.291 170.33 820.982 161.854 825.641 153.362C829.449 146.428 839.632 134.203 840.252 126.408C840.415 124.651 840.128 122.881 839.419 121.265ZM428.822 181.954C432.014 173.229 436.829 165.188 443.011 158.254C446.733 153.594 451.881 150.286 457.665 148.835C459.584 148.521 461.552 148.696 463.385 149.346C465.217 149.996 466.856 151.098 468.149 152.551C469.441 154.004 470.345 155.761 470.776 157.657C471.207 159.553 471.152 161.527 470.615 163.396C466.185 182.233 453.7 192.89 435.545 197.537C431.581 198.204 427.574 198.587 423.555 198.684C425.476 192.488 426.963 187.159 428.822 181.954Z" fill="white"/>
</svg>
